:SAMPLES-PER-SECOND 30
:FULLY-SPECIFIED
:DEGREES
517
root  -9.46182 37.7844 16.0016 177.607 21.8981 174.948
RightUpLeg  -21.4635 -10.7418 -19.6697
RightLeg  30.1515 -8.71251 -5.65824
RightFoot  4.77766 -3.0203 21.3363
RightToes  -1.39699e-009 0 -3.6325e-017
Spine  14.6745 1.59745 -8.90945
Spine1  20.4887 -0.73365 2.64281
HEad  5.90674 33.3371 -17.0463
LeftShoulder1  0.82609 -0.21965 -15.3481
LeftArm  12.2499 -8.56245 -52.5419
LeftForeArm  158.465 -78.2167 -131.699
LeftHand  -3.02768 -8.02083 26.1102
RightShoulder  0.688911 0.093225 12.1435
RightArm  3.81168 -16.6341 57.7638
RightForeArm  135.4 68.498 150.952
RightHand  -1.7567 5.32785 -19.154
LeftUpLeg  -11.4931 0.741576 0.0182213
LeftLeg  32.9745 -3.53012 -2.09045
LeftFoot  -20.2386 -0.608476 -9.36951
LeftToes  3.40148e-010 1.80944e-010 1.01921e-010
518
root  -9.43708 38.0524 16.1186 177.415 22.2521 174.68
RightUpLeg  -20.0448 -10.9249 -19.4523
RightLeg  31.0321 -8.72316 -5.85405
RightFoot  3.97945 -2.91808 21.6625
RightToes  -1.39699e-009 0 -3.6325e-017
Spine  13.5431 1.48305 -8.5551
Spine1  21.0912 -0.457066 1.8648
HEad  9.39705 37.3374 -16.3409
LeftShoulder1  0.677004 0.248126 -13.8417
LeftArm  14.8847 -11.2255 -51.3777
LeftForeArm  172.389 -77.4888 -137.615
LeftHand  -2.99186 -9.05216 24.0488
RightShoulder  0.688467 0.100416 12.0865
RightArm  4.26836 -16.9186 57.5513
RightForeArm  141.362 68.5079 151.681
RightHand  -1.86111 5.85964 -19.3348
LeftUpLeg  -10.3443 1.30484 -0.0730828
LeftLeg  30.435 -3.7811 -2.03364
LeftFoot  -18.6668 -0.511297 -9.71372
LeftToes  3.40148e-010 1.80944e-010 1.01921e-010
519
root  -9.32247 38.3602 16.2308 177.725 22.7831 174.906
RightUpLeg  -18.4763 -10.8227 -18.5415
RightLeg  31.1876 -7.91841 -5.37529
RightFoot  2.88472 -2.73463 21.8275
RightToes  -1.39699e-009 0 -3.6325e-017
Spine  12.1651 1.38016 -7.77281
Spine1  21.7045 -0.0574095 1.00777
HEad  11.4003 39.8491 -15.882
LeftShoulder1  0.603207 0.452126 -12.6959
LeftArm  17.4332 -12.9447 -49.5515
LeftForeArm  177.578 -76.4477 -141.895
LeftHand  -2.8237 -9.21701 22.5117
RightShoulder  0.683036 0.132911 11.7299
RightArm  4.42342 -17.1462 57.3581
RightForeArm  141.582 68.4598 151.775
RightHand  -1.75906 5.64603 -18.646
LeftUpLeg  -9.27212 1.68867 0.397402
LeftLeg  27.5116 -3.72011 -1.74875
LeftFoot  -17.0407 -0.397048 -9.99817
LeftToes  3.40148e-010 1.80944e-010 1.01921e-010
520
root  -9.1322 38.6675 16.3738 178.36 23.2275 175.423
RightUpLeg  -16.8597 -10.8852 -17.1379
RightLeg  31.0747 -7.02163 -4.77931
RightFoot  1.67766 -2.4767 21.5671
RightToes  -1.39699e-009 0 -3.6325e-017
Spine  11.0061 1.31361 -7.23206
Spine1  21.8286 0.125593 0.735447
HEad  12.0857 41.0358 -15.626
LeftShoulder1  0.52982 0.716844 -11.8556
LeftArm  19.1544 -13.2894 -48.0266
LeftForeArm  178.086 -75.6909 -144.031
LeftHand  -2.6237 -8.98655 21.305
RightShoulder  0.687464 0.247215 11.2181
RightArm  4.51173 -17.1393 57.0536
RightForeArm  139.901 68.6624 151.283
RightHand  -1.65432 5.31011 -18.1031
LeftUpLeg  -8.50311 1.41013 1.17125
LeftLeg  24.6904 -3.00166 -1.16016
LeftFoot  -15.2326 -0.260423 -10.3375
LeftToes  3.40148e-010 1.80944e-010 1.01921e-010
521
root  -8.86491 38.9285 16.5654 179.061 23.5322 175.995
RightUpLeg  -15.1364 -11.2352 -15.4909
RightLeg  31.0038 -6.46371 -4.41113
RightFoot  0.154119 -2.13789 21.0265
RightToes  -1.39699e-009 0 -3.6325e-017
Spine  10.2122 1.38912 -7.25485
Spine1  21.5541 0.115 1.19689
HEad  11.4706 40.7236 -15.2897
LeftShoulder1  0.463909 0.987909 -11.2278
LeftArm  19.9838 -12.6445 -47.1093
LeftForeArm  177.856 -75.5075 -144.449
LeftHand  -2.49582 -8.8066 20.5531
RightShoulder  0.701161 0.363012 10.9967
RightArm  4.75586 -16.8366 56.387
RightForeArm  139.702 68.9006 150.92
RightHand  -1.62188 5.20294 -17.9302
LeftUpLeg  -8.09967 0.557567 2.13147
LeftLeg  22.443 -1.89103 -0.513856
LeftFoot  -13.353 -0.114884 -11.0913
LeftToes  3.40148e-010 1.80944e-010 1.01921e-010
522
root  -8.5186 39.0945 16.7791 179.813 23.9339 176.539
RightUpLeg  -13.3266 -11.4566 -13.7654
RightLeg  30.507 -6.27215 -4.21155
RightFoot  -2.08436 -1.70101 20.6306
RightToes  -1.39699e-009 0 -3.6325e-017
Spine  9.35109 1.60066 -7.55803
Spine1  21.2863 0.169592 1.87836
HEad  9.74306 38.8451 -14.6666
LeftShoulder1  0.4483 1.03063 -10.8786
LeftArm  20.17 -11.4796 -46.3965
LeftForeArm  177.165 -75.7756 -143.649
LeftHand  -2.45431 -8.74489 20.3077
RightShoulder  0.702929 0.368345 11.0205
RightArm  5.01529 -16.3601 55.9134
RightForeArm  140.555 69.0579 150.803
RightHand  -1.58103 5.16149 -17.5572
LeftUpLeg  -8.13399 -0.137806 3.27777
LeftLeg  21.0908 -0.980568 -0.0762889
LeftFoot  -11.9568 0.00563136 -12.157
LeftToes  3.40148e-010 1.80944e-010 1.01921e-010
523
root  -8.12768 39.1348 16.9911 -179.317 24.5441 177.115
RightUpLeg  -11.7815 -11.2414 -12.0686
RightLeg  29.0888 -6.30029 -4.01208
RightFoot  -4.9131 -1.19721 20.522
RightToes  -1.39699e-009 0 -3.6325e-017
Spine  8.29526 1.77722 -7.59478
Spine1  21.0212 0.381794 2.24044
HEad  7.01453 35.775 -13.7611
LeftShoulder1  0.465994 0.919756 -10.7743
LeftArm  19.8348 -9.82937 -45.9032
LeftForeArm  174.476 -76.3533 -141.599
LeftHand  -2.46532 -8.64758 20.53
RightShoulder  0.689635 0.312123 10.9311
RightArm  5.05739 -15.8829 56.3077
RightForeArm  140.848 69.3156 150.462
RightHand  -1.49723 5.00863 -16.8899
LeftUpLeg  -8.7964 -0.452857 4.58795
LeftLeg  21.0335 -0.38329 0.175699
LeftFoot  -11.427 0.0579497 -13.2533
LeftToes  3.40148e-010 1.80944e-010 1.01921e-010
524
root  -7.75296 39.0204 17.2151 -178.546 25.351 177.887
RightUpLeg  -10.9962 -10.7121 -10.3739
RightLeg  27.579 -6.30702 -3.7925
RightFoot  -7.87171 -0.67554 20.3013
RightToes  -1.39699e-009 0 -3.6325e-017
Spine  7.71394 1.83445 -6.94092
Spine1  20.3955 0.707833 2.10052
HEad  3.16861 32.2661 -12.8481
LeftShoulder1  0.482622 0.838377 -10.859
LeftArm  18.99 -7.55493 -46.1905
LeftForeArm  167.928 -77.3054 -137.324
LeftHand  -2.52706 -8.34528 21.467
RightShoulder  0.685998 0.313161 10.8191
RightArm  5.01104 -15.3054 57.1215
RightForeArm  140.652 69.6693 149.903
RightHand  -1.41106 4.7999 -16.2604
LeftUpLeg  -10.1693 -0.715789 6.14056
LeftLeg  22.9654 0.110612 0.391684
LeftFoot  -11.8095 0.0105167 -14.4099
LeftToes  3.40148e-010 1.80944e-010 1.01921e-010
525
root  -7.44461 38.7203 17.4652 -178.277 26.5943 178.997
RightUpLeg  -11.1158 -9.9087 -8.56618
RightLeg  27.718 -6.11192 -3.70587
RightFoot  -10.7982 -0.168472 19.5193
RightToes  -1.39699e-009 0 -3.6325e-017
Spine  8.17133 1.89759 -5.55459
Spine1  19.5097 1.1759 1.54243
HEad  -1.59022 29.2591 -12.2809
LeftShoulder1  0.523587 0.682114 -11.3517
LeftArm  17.5859 -4.68833 -47.4534
LeftForeArm  154.781 -78.5539 -129.241
LeftHand  -2.61458 -7.678 23.263
RightShoulder  0.707926 0.392078 11.0389
RightArm  5.19096 -14.1597 57.3419
RightForeArm  140.519 69.9596 149.434
RightHand  -1.33376 4.60948 -15.6753
LeftUpLeg  -11.93 -0.914965 8.07678
LeftLeg  27.2771 0.272557 0.492696
LeftFoot  -13.0354 -0.157592 -15.7722
LeftToes  3.40148e-010 1.80944e-010 1.01921e-010
526
root  -7.23125 38.3327 17.7019 -178.613 28.5716 -179.57
RightUpLeg  -11.4338 -8.60432 -6.64364
RightLeg  29.4298 -5.84481 -3.79742
RightFoot  -13.3523 0.230723 18.2202
RightToes  -1.39699e-009 0 -3.6325e-017
Spine  9.26135 2.03755 -3.73183
Spine1  19.1183 1.77446 0.860923
HEad  -6.46709 27.5528 -12.1879
LeftShoulder1  0.633196 0.287613 -12.5921
LeftArm  15.4511 -1.39563 -49.3028
LeftForeArm  133.305 -79.548 -117.026
LeftHand  -2.62299 -6.51368 25.5141
RightShoulder  0.746487 0.521721 11.4541
RightArm  5.62849 -12.0882 56.9197
RightForeArm  140.037 70.3474 148.74
RightHand  -1.25506 4.45525 -14.9986
LeftUpLeg  -13.172 -1.02271 10.3187
LeftLeg  32.5972 -0.270185 0.160504
LeftFoot  -14.3775 -0.371719 -17.159
LeftToes  3.40148e-010 1.80944e-010 1.01921e-010
527
root  -7.10071 37.9775 17.8748 -179.389 30.9929 -178.395
RightUpLeg  -11.5545 -6.99754 -5.1823
RightLeg  31.6834 -5.49387 -3.8948
RightFoot  -15.3233 0.487589 16.9042
RightToes  -1.39699e-009 0 -3.6325e-017
Spine  10.1901 2.13144 -2.40929
Spine1  19.5918 2.25933 0.245941
HEad  -10.6046 27.2905 -12.3628
LeftShoulder1  0.793046 -0.195295 -14.5341
LeftArm  12.5309 2.14672 -51.4642
LeftForeArm  107.207 -79.7193 -104.52
LeftHand  -2.44627 -4.69908 27.9539
RightShoulder  0.783892 0.686516 11.6346
RightArm  6.1245 -9.52488 56.6686
RightForeArm  139.107 71.046 147.413
RightHand  -1.19459 4.38321 -14.3981
LeftUpLeg  -13.6037 -1.69211 12.1858
LeftLeg  37.4194 -1.38115 -0.76521
LeftFoot  -15.0199 -0.495405 -18.105
LeftToes  3.40148e-010 1.80944e-010 1.01921e-010
528
root  -7.04885 37.7505 17.9444 179.772 33.0521 -177.822
RightUpLeg  -11.5013 -5.87586 -4.56223
RightLeg  33.3322 -4.9024 -3.71901
RightFoot  -16.4362 0.601943 15.9393
RightToes  -1.39699e-009 0 -3.6325e-017
Spine  10.705 1.99634 -1.81288
Spine1  20.3579 2.37643 -0.175778
HEad  -13.5456 27.8265 -12.4051
LeftShoulder1  0.934281 -0.499388 -16.6222
LeftArm  9.36753 5.68065 -53.9783
LeftForeArm  84.3869 -79.3023 -96.3602
LeftHand  -2.14428 -2.66392 30.5016
RightShoulder  0.805953 0.7899 11.7022
RightArm  6.61275 -7.61059 56.8012
RightForeArm  138.812 71.6947 146.185
RightHand  -1.16283 4.3651 -14.0508
LeftUpLeg  -13.6109 -3.56746 13.1758
LeftLeg  40.8618 -2.5257 -1.94964
LeftFoot  -14.6751 -0.448221 -18.2592
LeftToes  3.40148e-010 1.80944e-010 1.01921e-010
529
root  -7.07184 37.6985 17.9052 179.258 34.3842 -177.676
RightUpLeg  -11.3106 -5.41731 -4.56185
RightLeg  33.7055 -4.2626 -3.31614
RightFoot  -16.5277 0.589426 15.4112
RightToes  -1.39699e-009 0 -3.6325e-017
Spine  10.8868 1.69765 -1.53204
Spine1  20.7971 2.23425 -0.39432
HEad  -15.2722 28.3629 -12.1125
LeftShoulder1  1.01722 -0.591761 -18.2404
LeftArm  7.17647 8.81569 -56.6107
LeftForeArm  69.8558 -78.9558 -91.1672
LeftHand  -1.94048 -1.48689 32.2093
RightShoulder  0.809476 0.715392 12.1704
RightArm  7.04576 -7.21418 56.714
RightForeArm  139.83 71.6882 146.346
RightHand  -1.12674 4.26005 -13.7684
LeftUpLeg  -13.4967 -6.18432 13.397
LeftLeg  42.5362 -3.4009 -2.94104
LeftFoot  -13.9176 -0.321218 -17.8431
LeftToes  3.40148e-010 1.80944e-010 1.01921e-010
530
root  -7.15663 37.8255 17.7848 179.198 35.4249 -177.762
RightUpLeg  -10.924 -4.78539 -4.81124
RightLeg  32.6163 -4.06749 -3.05547
RightFoot  -15.7114 0.479061 15.2848
RightToes  -1.39699e-009 0 -3.6325e-017
Spine  10.7098 1.5424 -1.42078
Spine1  20.9352 2.15569 -0.439552
HEad  -16.145 28.6406 -11.7662
LeftShoulder1  1.06668 -0.651006 -19.1376
LeftArm  6.95711 11.2341 -58.699
LeftForeArm  63.583 -78.8824 -86.1282
LeftHand  -1.8893 -1.33372 32.1075
RightShoulder  0.805638 0.541572 12.982
RightArm  7.16792 -8.2944 56.2124
RightForeArm  141.143 70.987 147.813
RightHand  -1.05253 4.02017 -13.1989
LeftUpLeg  -13.1485 -8.46236 13.1063
LeftLeg  42.352 -4.1657 -3.66587
LeftFoot  -13.4661 -0.247522 -17.5614
LeftToes  3.40148e-010 1.80944e-010 1.01921e-010
